<svg version="1.2" xmlns="http://www.w3.org/2000/svg" viewBox="0 0 500 501" width="500" height="501"><defs><clipPath clipPathUnits="userSpaceOnUse" id="cp1"><path d="m104 92.2h290.67v318h-290.67z"/></clipPath></defs><style>.a{fill:#fff}</style><path class="a" d="m163.6 281q0.9 1 2.1 1.4 1.2 0.5 2.5 0.5c0.2 0 0.4 0 0.6-0.1q-0.2 1.4 0.3 2.8 0.4 1.3 1.4 2.4l11 11.2q0.4 0.4 1 0.8 0.5 0.3 1 0.6 0.6 0.2 1.2 0.4 0.6 0.1 1.3 0.1 0.6 0 1.2-0.1 0.6-0.1 1.2-0.3 0.6-0.3 1.1-0.6 0.5-0.4 1-0.8 0.4-0.4 0.8-0.9 0.3-0.6 0.6-1.1 0.2-0.6 0.3-1.2 0.2-0.6 0.2-1.2 0-0.7-0.1-1.3-0.1-0.6-0.4-1.2-0.2-0.6-0.5-1.1-0.4-0.5-0.8-1l-11.2-11.2q-0.9-0.8-2-1.3-1.2-0.5-2.4-0.4h-0.8q0.2-1.4-0.2-2.8-0.4-1.4-1.4-2.4l-11-11.2q-0.9-0.9-2.1-1.4-1.2-0.5-2.5-0.5-0.9 0-1.8 0.3-0.9 0.2-1.7 0.7-0.8 0.5-1.4 1.3-0.6 0.7-1 1.5-0.3 0.9-0.4 1.8-0.1 1 0.1 1.9 0.1 0.9 0.6 1.7 0.4 0.8 1.1 1.5z"/><path class="a" d="m327.3 272.2q-1 1-1.4 2.4-0.5 1.4-0.3 2.8h-0.7q-1.3 0-2.4 0.4-1.1 0.5-2 1.4l-11 11.2q-0.5 0.4-0.8 0.9-0.3 0.6-0.6 1.1-0.2 0.6-0.3 1.2-0.1 0.6-0.1 1.3 0 0.6 0.1 1.2 0.1 0.6 0.4 1.2 0.2 0.6 0.6 1.1 0.3 0.5 0.8 0.9 0.4 0.5 1 0.8 0.5 0.3 1.1 0.6 0.5 0.2 1.2 0.3 0.6 0.1 1.2 0.1 0.6 0 1.2-0.1 0.6-0.1 1.2-0.4 0.6-0.2 1.1-0.6 0.5-0.4 0.9-0.8l11.1-11.2q1-1 1.4-2.4 0.4-1.4 0.2-2.8c0.3 0 0.5 0.1 0.7 0.1q1.3 0.1 2.5-0.4 1.1-0.5 2-1.4l11.1-11.4q0.4-0.4 0.7-1 0.4-0.5 0.6-1.1 0.2-0.5 0.3-1.1 0.2-0.7 0.1-1.3 0-0.6-0.1-1.2-0.1-0.6-0.4-1.2-0.2-0.6-0.6-1.1-0.3-0.5-0.8-0.9-0.4-0.5-0.9-0.8-0.6-0.3-1.1-0.6-0.6-0.2-1.2-0.3-0.6-0.1-1.3-0.1-0.6 0-1.2 0.1-0.6 0.2-1.2 0.4-0.6 0.3-1.1 0.6-0.5 0.4-0.9 0.8z"/><path class="a" d="m149.9 326.1q0.5 0.4 1 0.7 0.6 0.3 1.2 0.5 0.6 0.2 1.2 0.3 0.6 0.1 1.2 0 0.6 0 1.2-0.2 0.6-0.2 1.2-0.5 0.5-0.2 1-0.6 0.5-0.4 0.9-0.9 0.4-0.5 0.7-1 0.3-0.5 0.5-1.1 0.2-0.6 0.3-1.2 0-0.7 0-1.3-0.1-0.6-0.2-1.2-0.2-0.6-0.5-1.1-0.3-0.6-0.7-1.1-0.3-0.5-0.8-0.9l-12.1-10.2q-1.8-1.5-4.1-1.5-1.4 0-2.6 0.6-1.3 0.6-2.1 1.6-0.4 0.5-0.8 1-0.3 0.6-0.4 1.2-0.2 0.6-0.3 1.2-0.1 0.6 0 1.2 0 0.6 0.2 1.2 0.2 0.6 0.4 1.2 0.3 0.5 0.7 1 0.4 0.5 0.9 0.9z"/><path class="a" d="m341.1 325.4q0.4 0.5 0.8 0.9 0.5 0.3 1.1 0.6 0.5 0.3 1.1 0.5 0.6 0.2 1.2 0.2 0.7 0.1 1.3 0 0.6-0.1 1.2-0.3 0.6-0.2 1.1-0.5 0.6-0.3 1-0.7l12-10.2q0.5-0.4 0.9-0.9 0.4-0.4 0.7-1 0.2-0.5 0.4-1.1 0.2-0.6 0.2-1.3 0.1-0.6 0-1.2 0-0.6-0.2-1.2-0.2-0.6-0.5-1.2-0.3-0.5-0.7-1-0.4-0.4-0.9-0.8-0.5-0.4-1-0.7-0.6-0.3-1.2-0.5-0.6-0.1-1.2-0.2-0.6-0.1-1.3 0-0.6 0.1-1.2 0.3-0.6 0.2-1.1 0.5-0.5 0.3-1 0.7l-12 10.2q-0.5 0.4-0.9 0.8-0.4 0.5-0.7 1.1-0.3 0.5-0.4 1.1-0.2 0.6-0.3 1.3 0 0.6 0.1 1.2 0 0.6 0.2 1.2 0.2 0.6 0.5 1.2 0.3 0.5 0.8 1z"/><g clip-path="url(#cp1)"><path class="a" d="m388.3 355.4h-102.7v-150.1h12.3q1.3 0 2.5-0.5 1.2-0.5 2.1-1.4l36.5-38.1q0.7-0.8 1.1-1.7c0-0.2 0-0.4 0.2-0.6q0.3-0.8 0.4-1.7c0 0 0-0.2 0-0.3v-61.8q0-0.6-0.2-1.2-0.1-0.6-0.3-1.2-0.2-0.6-0.6-1.1-0.3-0.5-0.8-0.9-0.4-0.5-0.9-0.8-0.5-0.4-1.1-0.6-0.5-0.3-1.1-0.4-0.7-0.1-1.3-0.1h-169q-0.6 0-1.2 0.1-0.6 0.1-1.2 0.4-0.6 0.2-1.1 0.5-0.5 0.4-0.9 0.8-0.5 0.5-0.8 1-0.4 0.5-0.6 1.1-0.2 0.5-0.4 1.1-0.1 0.7-0.1 1.3v61.8q0 0.2 0 0.3 0.1 0.9 0.4 1.8c0 0.1 0 0.3 0.1 0.5q0.5 1 1.2 1.7l36.6 38.1q0.8 0.9 2 1.4 1.2 0.5 2.5 0.5h12.3v150.1h-102.6q-0.6 0-1.2 0.1-0.6 0.1-1.2 0.4-0.6 0.2-1.1 0.5-0.5 0.4-0.9 0.8-0.5 0.5-0.8 1-0.4 0.5-0.6 1.1-0.2 0.5-0.4 1.1-0.1 0.7-0.1 1.3v41.9q0 0.6 0.1 1.2 0.2 0.6 0.4 1.2 0.2 0.5 0.6 1 0.3 0.6 0.8 1 0.4 0.4 0.9 0.8 0.5 0.3 1.1 0.6 0.6 0.2 1.2 0.3 0.6 0.1 1.2 0.1h276.7q0.6 0 1.2-0.1 0.6-0.1 1.2-0.3 0.5-0.3 1-0.6 0.6-0.4 1-0.8 0.4-0.4 0.8-1 0.3-0.5 0.6-1 0.2-0.6 0.3-1.2 0.1-0.6 0.1-1.2v-41.9q0-0.6-0.1-1.3-0.1-0.6-0.3-1.1-0.3-0.6-0.6-1.1-0.4-0.5-0.8-1-0.4-0.4-1-0.7-0.5-0.4-1-0.6-0.6-0.3-1.2-0.4-0.6-0.1-1.2-0.1zm-270.4 41.9v-29.3h264v29.3zm155.2-115.3l-46.2-47.4v-29.3h46.2zm-46.2 34.9l37.5 38.6h-37.5zm0-64.2l46.2 47.4v46.1l-46.2-47.3zm-55.1-98.1v-49.2h156.4v49.2zm148 12.6l-24.5 25.5h-90.5l-24.5-25.5z"/></g><path class="a" d="m81.5 251.4q-1.8-1.5-4.1-1.5-1.4 0-2.6 0.6-1.3 0.6-2.2 1.7-0.4 0.5-0.7 1-0.3 0.6-0.4 1.1-0.2 0.6-0.3 1.2-0.1 0.7 0 1.3 0 0.6 0.2 1.2 0.2 0.6 0.5 1.1 0.3 0.6 0.6 1 0.4 0.5 0.9 0.9l12 10.2q1.7 1.5 4.1 1.5 0.9 0 1.8-0.3 1-0.3 1.8-0.8 0.8-0.6 1.3-1.4 0.6-0.7 1-1.6 0.3-0.9 0.4-1.9 0-1-0.2-1.9-0.3-0.9-0.8-1.7-0.5-0.9-1.3-1.5z"/><path class="a" d="m427.3 252.1q-0.9-1-2.2-1.6-1.2-0.6-2.6-0.6-2.3 0-4.1 1.5l-12 10.2q-0.7 0.6-1.3 1.4-0.5 0.8-0.7 1.8-0.3 0.9-0.2 1.9 0 0.9 0.4 1.8 0.3 0.9 0.9 1.7 0.6 0.8 1.4 1.3 0.8 0.6 1.7 0.9 0.9 0.2 1.9 0.2 2.3 0.1 4.1-1.5l12-10.1q0.4-0.4 0.8-0.9 0.4-0.5 0.7-1 0.2-0.6 0.4-1.2 0.2-0.6 0.2-1.2 0.1-0.6 0-1.2-0.1-0.6-0.3-1.2-0.2-0.6-0.5-1.1-0.2-0.6-0.6-1.1z"/></svg>