<svg version="1.2" xmlns="http://www.w3.org/2000/svg" viewBox="0 0 500 501" width="500" height="501"><defs><clipPath clipPathUnits="userSpaceOnUse" id="cp1"><path d="m89.33 134.17h137.34v148.5h-137.34z"/></clipPath><clipPath clipPathUnits="userSpaceOnUse" id="cp2"><path d="m229.33 206.67h13.01v12h-13.01z"/></clipPath><clipPath clipPathUnits="userSpaceOnUse" id="cp3"><path d="m178.32 188.27h90.01v63.1h-90.01z"/></clipPath></defs><style>.a{fill:#fff}</style><path class="a" d="m117.8 222.3q0.9 0.9 2.2 0.9c0.1 0 0.2 0 0.3-0.1q-0.2 1.4 0.7 2.4l5.2 5.3q0.4 0.4 0.9 0.6 0.6 0.3 1.2 0.3 0.5 0 1.1-0.2 0.5-0.3 1-0.7 0.4-0.4 0.6-0.9 0.2-0.6 0.3-1.2 0-0.5-0.3-1.1-0.2-0.5-0.6-1l-5.2-5.2q-0.9-0.8-2.1-0.8h-0.3q0.2-1.4-0.8-2.4l-5.1-5.3q-0.9-0.8-2.1-0.8-0.9 0-1.7 0.4-0.7 0.5-1.1 1.3-0.3 0.9-0.2 1.7 0.2 0.9 0.8 1.6z"/><path class="a" d="m111.4 243.3q0.5 0.4 1 0.6 0.6 0.2 1.2 0.1 0.6 0 1.1-0.3 0.5-0.2 0.9-0.7 0.4-0.4 0.5-1 0.2-0.6 0.2-1.1-0.1-0.6-0.3-1.1-0.3-0.6-0.8-0.9l-5.6-4.8q-0.8-0.7-1.9-0.7-1.4 0-2.2 1-0.4 0.5-0.6 1-0.2 0.6-0.1 1.2 0 0.6 0.3 1.1 0.3 0.5 0.7 0.9z"/><g clip-path="url(#cp1)"><path class="a" d="m222.7 257h-47.9v-70h5.7q1.3 0 2.1-1l17.1-17.7q0.3-0.4 0.5-0.8c0-0.1 0-0.2 0.1-0.3q0.1-0.4 0.2-0.8v-0.1-28.9q0-0.6-0.3-1.1-0.2-0.5-0.6-0.9-0.4-0.5-0.9-0.7-0.6-0.2-1.1-0.2h-78.9q-0.6 0-1.2 0.2-0.5 0.2-0.9 0.6-0.4 0.5-0.6 1-0.3 0.5-0.3 1.1v28.9q0 0.1 0 0.1 0.1 0.5 0.2 0.8c0 0.1 0 0.2 0.1 0.3q0.2 0.4 0.5 0.8l17.1 17.8q0.8 0.9 2.1 0.9h5.7v70h-47.8q-0.6 0-1.2 0.2-0.5 0.2-0.9 0.7-0.4 0.4-0.7 0.9-0.2 0.5-0.2 1.1v19.6q0 0.6 0.2 1.1 0.3 0.5 0.7 1 0.4 0.4 0.9 0.6 0.6 0.2 1.2 0.2h129.1q0.6 0 1.1-0.2 0.5-0.2 0.9-0.7 0.5-0.4 0.7-0.9 0.2-0.5 0.2-1.1v-19.6q0-0.6-0.2-1.1-0.2-0.5-0.7-0.9-0.4-0.5-0.9-0.7-0.5-0.2-1.1-0.2zm-126.2 19.5v-13.6h123.2v13.6zm72.4-53.8l-21.5-22.1v-13.6h21.5zm-21.5 16.2l17.5 18h-17.5zm0-29.9l21.5 22.1v21.5l-21.5-22.1zm-25.8-45.7v-23h73.1v23zm69 5.9l-11.4 11.9h-42.3l-11.4-11.9z"/></g><path class="a" d="m79.5 208.5q-0.8-0.7-1.9-0.7-1.4 0-2.2 1-0.4 0.5-0.6 1-0.2 0.6-0.1 1.2 0 0.5 0.3 1.1 0.3 0.5 0.7 0.9l5.6 4.7q0.8 0.7 1.9 0.7 0.9 0 1.7-0.5 0.8-0.5 1.1-1.4 0.3-0.9 0.1-1.8-0.3-0.9-1-1.5z"/><g clip-path="url(#cp2)"></g><g clip-path="url(#cp3)"></g><path class="a" d="m182.8 236.7l4.2-0.8v-20l-4.2-0.7v-3.3h8.8l0.3 4.2q1.4-2.3 3.5-3.5 2.2-1.2 4.9-1.2 4.5 0 7 2.6 2.5 2.7 2.5 8.2v13.7l4.2 0.8v3.2h-13.6v-3.2l4.3-0.8v-13.6q0-3.7-1.5-5.2-1.5-1.6-4.5-1.6-2.2 0-3.9 1.1-1.7 1.1-2.7 2.9v16.4l4.3 0.8v3.2h-13.6z"/><path class="a" d="m217.7 226.4q0-6.7 3-10.9 2.9-4.1 8.2-4.1 2.6 0 4.6 1 2 1 3.3 3l0.5-3.5h4.3v27.7q0 5.4-3 8.5-3.1 3.2-8.7 3.2-2 0-4.3-0.6-2.4-0.6-4.2-1.5l1.3-4q1.5 0.8 3.4 1.3 1.9 0.5 3.8 0.5 3.4 0 5-2 1.6-1.9 1.6-5.4v-2.7q-1.4 1.8-3.3 2.7-1.9 0.9-4.4 0.9-5.2 0-8.1-3.7-3-3.8-3-9.8zm5.1 0.5q0 4.3 1.8 6.8 1.8 2.6 5.5 2.6 2.3 0 3.8-1.1 1.6-1 2.6-2.9v-13q-1-1.7-2.6-2.8-1.6-1-3.8-1-3.6 0-5.5 3-1.8 3.1-1.8 7.9z"/><path class="a" d="m260.6 240.5q-5.9 0-9.4-3.9-3.4-3.9-3.4-10.1v-1.2q0-6 3.5-9.9 3.6-4 8.5-4 5.6 0 8.6 3.4 2.9 3.4 2.9 9.1v3.2h-18.2l-0.1 0.1q0.1 4.1 2 6.7 2 2.6 5.6 2.6 2.5 0 4.5-0.7 2-0.8 3.4-2.1l2 3.3q-1.5 1.5-4 2.5-2.5 1-5.9 1zm-0.8-25.1q-2.6 0-4.4 2.1-1.8 2.2-2.2 5.5v0.1h12.9v-0.7q0-3-1.6-5-1.6-2-4.7-2z"/><path class="a" d="m275.5 236.7l4.3-0.8v-20l-4.3-0.7v-3.3h8.8l0.4 4.2q1.4-2.3 3.5-3.5 2.1-1.2 4.8-1.2 4.5 0 7 2.6 2.5 2.7 2.5 8.2v13.7l4.2 0.8v3.2h-13.5v-3.2l4.2-0.8v-13.6q0-3.7-1.4-5.2-1.5-1.6-4.5-1.6-2.2 0-3.9 1.1-1.7 1.1-2.7 2.9v16.4l4.2 0.8v3.2h-13.6z"/><path class="a" d="m310.4 236.7l4.3-0.8v-20l-4.3-0.7v-3.3h9.4v24l4.2 0.8v3.2h-13.6zm9.4-31.9h-5.1v-5.2h5.1z"/><path class="a" d="m340.7 240.5q-5.9 0-9.3-3.9-3.5-3.9-3.5-10.1v-1.2q0-6 3.6-9.9 3.5-4 8.4-4 5.7 0 8.6 3.4 2.9 3.4 2.9 9.1v3.2h-18.2l-0.1 0.1q0.1 4.1 2.1 6.7 1.9 2.6 5.5 2.6 2.6 0 4.5-0.7 2-0.8 3.4-2.1l2 3.3q-1.5 1.5-4 2.5-2.4 1-5.9 1zm-0.8-25.1q-2.6 0-4.4 2.1-1.8 2.2-2.2 5.5v0.1h13v-0.7q0-3-1.6-5-1.6-2-4.8-2z"/><path class="a" d="m356.4 215.2v-3.3h8.8l0.5 4.1q1.2-2.2 3-3.4 1.7-1.2 4-1.2 0.6 0 1.2 0.1 0.6 0 1 0.1l-0.7 4.8-2.9-0.2q-2 0-3.4 1-1.4 0.9-2.1 2.6v16.1l4.2 0.8v3.2h-13.6v-3.2l4.3-0.8v-20z"/><path class="a" d="m378.4 215.2v-3.3h9.3v24l4.3 0.8v3.2h-13.6v-3.2l4.2-0.8v-20zm8.1-14.1h6l0.1 0.2-7 6.8h-3.8z"/><path class="a" d="m414.1 239.9q-0.2-1.1-0.4-2-0.1-0.9-0.1-1.8-1.5 1.9-3.7 3.1-2.2 1.3-4.8 1.3-4.4 0-6.7-2.1-2.2-2.2-2.2-6.1 0-4 3.2-6.1 3.2-2.2 8.9-2.2h5.2v-3.3q0-2.4-1.5-3.9-1.6-1.4-4.3-1.4-2 0-3.4 0.5-1.5 0.5-2.4 1.3l-0.6 3h-3.9v-5.5q1.9-1.5 4.6-2.4 2.8-0.9 6-0.9 4.7 0 7.7 2.4 2.9 2.4 2.9 7v13.5q0 0.5 0.1 1.1 0 0.5 0 1l2.1 0.3v3.2zm-8.2-3.7q2.5 0 4.6-1.2 2.1-1.2 3-2.9v-4.7h-5.4q-3.1 0-5 1.5-1.8 1.4-1.8 3.5 0 1.9 1.1 2.8 1.2 1 3.5 1z"/><path class="a" d="m110.5 305.8q9.3 0 14.9 5.7 5.7 5.7 5.7 14.7v6.5q0 9.1-5.7 14.8-5.6 5.7-14.9 5.7h-19.8v-4.1l5.3-1v-37.3l-5.3-0.9v-4.1zm-8.2 5v37.3h8.2q6.5 0 10.3-4.3 3.8-4.3 3.8-11.1v-6.5q0-6.7-3.8-11.1-3.8-4.3-10.3-4.3z"/><path class="a" d="m153.5 353.9q-7.4 0-11.7-4.9-4.3-5-4.3-12.8v-1.4q0-7.5 4.4-12.5 4.5-5 10.6-5 7.1 0 10.8 4.3 3.6 4.3 3.6 11.4v4.1h-22.8l-0.1 0.1q0.1 5.1 2.6 8.4 2.4 3.2 6.9 3.2 3.3 0 5.7-0.9 2.5-0.9 4.3-2.5l2.5 4.1q-1.9 1.8-5 3.1-3.1 1.3-7.5 1.3zm-1-31.6q-3.2 0-5.5 2.8-2.2 2.7-2.8 6.8l0.1 0.1h16.2v-0.8q0-3.8-2-6.3-2-2.6-6-2.6z"/><path class="a" d="m172.4 306.5v-4.1h11.7v45.7l5.3 1v4.1h-17v-4.1l5.3-1v-40.7z"/><path class="a" d="m231 305.8q7.4 0 11.6 3.2 4.2 3.2 4.2 9.6 0 3.2-2 5.6-2 2.5-5.3 3.7 4.3 1 6.7 4.2 2.5 3.3 2.5 7.7 0 6.5-4.2 9.9-4.3 3.5-11.5 3.5h-22.8v-4.1l5.3-1v-37.3l-5.3-0.9v-4.1zm-9 25.1v17.2h11.1q4.3 0 6.8-2.1 2.4-2.2 2.4-6.1 0-4.2-2.1-6.6-2-2.4-6.2-2.4zm0-5h10.8q3.4-0.1 5.5-2 2.2-2 2.2-5.4 0-3.9-2.4-5.8-2.4-1.9-7-1.9h-9.1z"/><path class="a" d="m253.7 306.5v-4.1h11.7v45.7l5.3 1v4.1h-17v-4.1l5.3-1v-40.7z"/><path class="a" d="m298.6 353.2q-0.3-1.5-0.5-2.6-0.1-1.1-0.2-2.3-1.9 2.4-4.7 4-2.7 1.6-5.9 1.6-5.5 0-8.4-2.7-2.8-2.7-2.8-7.6 0-5 4-7.7 4.1-2.8 11.2-2.8h6.6v-4.1q0-3-2-4.9-2-1.8-5.4-1.8-2.4 0-4.3 0.7-1.8 0.6-3 1.6l-0.7 3.8h-4.9v-6.9q2.4-1.9 5.8-3 3.5-1.2 7.5-1.2 5.9 0 9.6 3.1 3.8 3 3.8 8.7v17q0 0.7 0 1.3 0 0.7 0.1 1.3l2.6 0.4v4.1zm-10.4-4.7q3.2 0 5.9-1.5 2.6-1.6 3.8-3.7v-5.8h-6.9q-3.9 0-6.2 1.8-2.3 1.8-2.3 4.4 0 2.3 1.4 3.6 1.4 1.2 4.3 1.2z"/><path class="a" d="m311.4 349.1l5.3-1v-25.1l-5.3-0.9v-4.2h11l0.4 5.3q1.8-2.8 4.5-4.3 2.6-1.6 6-1.6 5.7 0 8.8 3.3 3.1 3.4 3.1 10.3v17.2l5.3 1v4.1h-17v-4.1l5.3-1v-17q0-4.7-1.8-6.6-1.9-2-5.6-2-2.8 0-4.9 1.3-2.2 1.4-3.4 3.7v20.6l5.3 1v4.1h-17z"/><path class="a" d="m371 348.8q3.2 0 5.6-1.9 2.4-2 2.4-4.9h5.8l0.1 0.2q0.1 4.6-4.1 8.1-4.2 3.6-9.8 3.6-7.7 0-11.7-5-4.1-5.1-4.1-12.7v-1.3q0-7.5 4.1-12.6 4.1-5 11.7-5 4.3 0 7.6 1.4 3.4 1.4 5.6 3.8l0.3 7.9h-5.1l-1.4-5.6q-1.2-1.1-3-1.8-1.7-0.7-4-0.7-5 0-7.2 3.7-2.2 3.6-2.2 8.9v1.3q0 5.4 2.2 9 2.1 3.6 7.2 3.6z"/><path class="a" d="m391.2 335.2q0-7.8 4.2-12.8 4.2-5.1 11.5-5.1 7.3 0 11.5 5 4.3 5.1 4.3 12.9v0.7q0 7.9-4.3 13-4.2 5-11.5 5-7.3 0-11.5-5.1-4.2-5-4.2-12.9zm6.4 0.7q0 5.7 2.3 9.3 2.4 3.6 7 3.6 4.6 0 7-3.6 2.4-3.6 2.4-9.3v-0.7q0-5.5-2.4-9.2-2.4-3.7-7-3.7-4.7 0-7 3.7-2.3 3.7-2.3 9.2z"/></svg>